<?xml version="1.0" standalone="no"?>
<!DOCTYPE svg PUBLIC "-//W3C//DTD SVG 20010904//EN"
 "http://www.w3.org/TR/2001/REC-SVG-20010904/DTD/svg10.dtd">
<svg version="1.0" xmlns="http://www.w3.org/2000/svg"
 width="232.000000pt" height="210.000000pt" viewBox="0 0 232.000000 210.000000"
 preserveAspectRatio="xMidYMid meet">

<g transform="translate(0.000000,210.000000) scale(0.100000,-0.100000)"
fill="#000000" stroke="none">
<path d="M1131 1645 c-18 -8 -59 -15 -91 -15 -60 0 -110 -24 -151 -73 -29 -34
-76 -138 -84 -184 -8 -53 16 -142 55 -200 15 -22 31 -52 35 -65 4 -12 30 -67
57 -121 53 -106 101 -161 197 -226 84 -56 86 -56 137 -9 64 59 78 90 63 135
-6 19 -9 56 -6 82 15 118 20 135 53 166 33 32 61 106 47 128 -4 6 -8 55 -8
107 0 86 -3 100 -30 149 -64 116 -177 168 -274 126z"/>
<path d="M940 810 c-29 -25 -90 -56 -173 -90 -177 -72 -183 -78 -239 -190 -62
-123 -88 -202 -88 -263 0 -28 -11 -80 -25 -118 l-25 -69 745 0 c574 0 745 3
745 12 0 7 -11 116 -26 243 -18 170 -30 236 -42 253 -22 30 -58 49 -213 115
-70 29 -144 68 -165 85 -21 17 -40 30 -42 28 -2 -2 4 -19 14 -37 14 -29 16
-55 11 -199 -5 -162 -39 -415 -58 -434 -5 -6 -9 11 -9 45 0 82 -20 227 -40
292 -17 53 -17 60 -3 89 15 28 14 33 -5 67 -18 31 -27 36 -60 39 -34 3 -43 -1
-60 -25 -17 -25 -18 -35 -10 -83 6 -38 5 -117 -4 -250 l-13 -195 -89 303 c-82
281 -88 308 -82 363 4 32 6 59 4 58 -2 0 -23 -17 -48 -39z"/>
</g>
</svg>
